<?xml version="1.0" standalone="no"?><!DOCTYPE svg PUBLIC "-//W3C//DTD SVG 1.1//EN" "http://www.w3.org/Graphics/SVG/1.1/DTD/svg11.dtd"><svg t="1693306701855" class="icon" viewBox="0 0 2247 1024" version="1.1" xmlns="http://www.w3.org/2000/svg" p-id="1677" xmlns:xlink="http://www.w3.org/1999/xlink" width="280.875" height="128"><path d="M0 199.455776v824.377041h167.182527V648.006497h386.860368v-167.182527H167.182527V199.455776A33.436505 33.436505 0 0 1 202.290858 167.189549h438.854133V0.007022H202.290858A200.619032 200.619032 0 0 0 0 199.455776zM948.092111 199.455776v824.377041h167.182527V648.006497h386.693185v-167.182527H1115.274638V199.455776A33.436505 33.436505 0 0 1 1150.215786 167.189549h438.854134V0.007022H1150.215786a200.619032 200.619032 0 0 0-202.123675 199.448754zM721.058239 88.613761h167.182527v935.386239h-167.182527zM1957.038662 4.186585h-36.278608C1760.599193 4.186585 1630.364004 150.471296 1630.364004 330.359695v693.473122h167.182527V330.359695c0-86.099001 56.507694-158.990583 123.213523-158.990583h36.278608c68.043289 0 123.380705 71.386939 123.380705 158.990583v153.306377h-158.823401v167.182528h158.823401v372.984217h167.182527V330.359695C2247.601894 150.471296 2117.366705 4.186585 1957.038662 4.186585z" p-id="1678" fill="#ffffff"></path></svg>